<svg id="visual" viewBox="0 0 900 600" width="900" height="600" xmlns="http://www.w3.org/2000/svg" xmlns:xlink="http://www.w3.org/1999/xlink" version="1.1"><g stroke-width="1" stroke-linejoin="bevel"><path d="M473 267L391 164L407 303Z" fill="#297ea6" stroke="#297ea6"></path><path d="M473 267L502 171L391 164Z" fill="#15384f" stroke="#15384f"></path><path d="M391 164L306 293L407 303Z" fill="#15384f" stroke="#15384f"></path><path d="M391 164L280 165L306 293Z" fill="#1d4e6b" stroke="#1d4e6b"></path><path d="M502 171L425 83L391 164Z" fill="#19435d" stroke="#19435d"></path><path d="M391 164L327 107L280 165Z" fill="#112e42" stroke="#112e42"></path><path d="M425 83L327 107L391 164Z" fill="#205a7a" stroke="#205a7a"></path><path d="M473 267L584 202L502 171Z" fill="#112e42" stroke="#112e42"></path><path d="M502 171L529 89L425 83Z" fill="#0c2435" stroke="#0c2435"></path><path d="M493 422L577 296L473 267Z" fill="#081a28" stroke="#081a28"></path><path d="M473 267L577 296L584 202Z" fill="#19435d" stroke="#19435d"></path><path d="M306 293L363 406L407 303Z" fill="#19435d" stroke="#19435d"></path><path d="M407 303L493 422L473 267Z" fill="#297ea6" stroke="#297ea6"></path><path d="M584 202L529 89L502 171Z" fill="#081a28" stroke="#081a28"></path><path d="M306 293L276 374L363 406Z" fill="#297ea6" stroke="#297ea6"></path><path d="M232 379L276 374L306 293Z" fill="#00101c" stroke="#00101c"></path><path d="M217 83L216 203L280 165Z" fill="#19435d" stroke="#19435d"></path><path d="M280 165L216 203L306 293Z" fill="#205a7a" stroke="#205a7a"></path><path d="M363 406L493 422L407 303Z" fill="#0c2435" stroke="#0c2435"></path><path d="M321 468L407 469L363 406Z" fill="#081a28" stroke="#081a28"></path><path d="M183 282L232 379L306 293Z" fill="#081a28" stroke="#081a28"></path><path d="M216 203L183 282L306 293Z" fill="#297ea6" stroke="#297ea6"></path><path d="M425 83L380 0L327 107Z" fill="#112e42" stroke="#112e42"></path><path d="M327 107L217 83L280 165Z" fill="#277297" stroke="#277297"></path><path d="M535 0L380 0L425 83Z" fill="#15384f" stroke="#15384f"></path><path d="M363 406L407 469L493 422Z" fill="#15384f" stroke="#15384f"></path><path d="M321 468L363 406L276 374Z" fill="#297ea6" stroke="#297ea6"></path><path d="M321 0L217 83L327 107Z" fill="#1d4e6b" stroke="#1d4e6b"></path><path d="M216 203L138 174L183 282Z" fill="#1d4e6b" stroke="#1d4e6b"></path><path d="M380 0L321 0L327 107Z" fill="#15384f" stroke="#15384f"></path><path d="M584 202L626 103L529 89Z" fill="#112e42" stroke="#112e42"></path><path d="M529 89L535 0L425 83Z" fill="#297ea6" stroke="#297ea6"></path><path d="M684 197L626 103L584 202Z" fill="#246688" stroke="#246688"></path><path d="M232 379L321 468L276 374Z" fill="#112e42" stroke="#112e42"></path><path d="M493 422L588 420L577 296Z" fill="#0c2435" stroke="#0c2435"></path><path d="M577 296L684 197L584 202Z" fill="#15384f" stroke="#15384f"></path><path d="M523 493L588 420L493 422Z" fill="#1d4e6b" stroke="#1d4e6b"></path><path d="M593 0L535 0L529 89Z" fill="#205a7a" stroke="#205a7a"></path><path d="M734 335L684 197L577 296Z" fill="#1d4e6b" stroke="#1d4e6b"></path><path d="M217 83L138 174L216 203Z" fill="#15384f" stroke="#15384f"></path><path d="M467 600L523 493L407 469Z" fill="#246688" stroke="#246688"></path><path d="M407 469L523 493L493 422Z" fill="#246688" stroke="#246688"></path><path d="M321 0L236 0L217 83Z" fill="#0c2435" stroke="#0c2435"></path><path d="M217 83L102 78L138 174Z" fill="#246688" stroke="#246688"></path><path d="M673 65L593 0L626 103Z" fill="#0c2435" stroke="#0c2435"></path><path d="M626 103L593 0L529 89Z" fill="#00101c" stroke="#00101c"></path><path d="M523 493L607 466L588 420Z" fill="#246688" stroke="#246688"></path><path d="M718 402L734 335L577 296Z" fill="#277297" stroke="#277297"></path><path d="M684 197L673 65L626 103Z" fill="#112e42" stroke="#112e42"></path><path d="M138 174L109 318L183 282Z" fill="#081a28" stroke="#081a28"></path><path d="M183 282L109 318L232 379Z" fill="#15384f" stroke="#15384f"></path><path d="M232 379L172 526L321 468Z" fill="#19435d" stroke="#19435d"></path><path d="M718 402L577 296L588 420Z" fill="#205a7a" stroke="#205a7a"></path><path d="M684 197L783 74L673 65Z" fill="#277297" stroke="#277297"></path><path d="M109 318L128 423L232 379Z" fill="#297ea6" stroke="#297ea6"></path><path d="M97 0L102 78L217 83Z" fill="#081a28" stroke="#081a28"></path><path d="M138 174L0 162L109 318Z" fill="#15384f" stroke="#15384f"></path><path d="M607 466L718 402L588 420Z" fill="#081a28" stroke="#081a28"></path><path d="M782 274L765 231L734 335Z" fill="#081a28" stroke="#081a28"></path><path d="M734 335L765 231L684 197Z" fill="#297ea6" stroke="#297ea6"></path><path d="M321 468L393 600L407 469Z" fill="#15384f" stroke="#15384f"></path><path d="M523 493L577 600L607 466Z" fill="#19435d" stroke="#19435d"></path><path d="M607 466L726 523L718 402Z" fill="#15384f" stroke="#15384f"></path><path d="M301 600L393 600L321 468Z" fill="#00101c" stroke="#00101c"></path><path d="M393 600L467 600L407 469Z" fill="#081a28" stroke="#081a28"></path><path d="M785 371L782 274L734 335Z" fill="#1d4e6b" stroke="#1d4e6b"></path><path d="M128 423L172 526L232 379Z" fill="#112e42" stroke="#112e42"></path><path d="M172 526L301 600L321 468Z" fill="#00101c" stroke="#00101c"></path><path d="M236 0L97 0L217 83Z" fill="#00101c" stroke="#00101c"></path><path d="M0 133L0 162L138 174Z" fill="#081a28" stroke="#081a28"></path><path d="M783 74L732 0L673 65Z" fill="#297ea6" stroke="#297ea6"></path><path d="M673 65L732 0L593 0Z" fill="#0c2435" stroke="#0c2435"></path><path d="M783 74L684 197L765 231Z" fill="#246688" stroke="#246688"></path><path d="M824 507L785 371L718 402Z" fill="#1d4e6b" stroke="#1d4e6b"></path><path d="M718 402L785 371L734 335Z" fill="#00101c" stroke="#00101c"></path><path d="M467 600L577 600L523 493Z" fill="#0c2435" stroke="#0c2435"></path><path d="M900 169L783 74L765 231Z" fill="#19435d" stroke="#19435d"></path><path d="M822 0L783 74L900 80Z" fill="#081a28" stroke="#081a28"></path><path d="M128 423L111 516L172 526Z" fill="#112e42" stroke="#112e42"></path><path d="M172 526L190 600L301 600Z" fill="#246688" stroke="#246688"></path><path d="M0 493L111 516L128 423Z" fill="#1d4e6b" stroke="#1d4e6b"></path><path d="M0 401L128 423L109 318Z" fill="#205a7a" stroke="#205a7a"></path><path d="M0 133L138 174L102 78Z" fill="#081a28" stroke="#081a28"></path><path d="M0 0L0 133L102 78Z" fill="#1d4e6b" stroke="#1d4e6b"></path><path d="M0 162L0 336L109 318Z" fill="#246688" stroke="#246688"></path><path d="M675 600L726 523L607 466Z" fill="#205a7a" stroke="#205a7a"></path><path d="M135 600L190 600L172 526Z" fill="#297ea6" stroke="#297ea6"></path><path d="M0 336L0 401L109 318Z" fill="#0c2435" stroke="#0c2435"></path><path d="M111 516L135 600L172 526Z" fill="#205a7a" stroke="#205a7a"></path><path d="M577 600L675 600L607 466Z" fill="#246688" stroke="#246688"></path><path d="M0 600L135 600L111 516Z" fill="#19435d" stroke="#19435d"></path><path d="M900 169L765 231L782 274Z" fill="#19435d" stroke="#19435d"></path><path d="M783 74L822 0L732 0Z" fill="#15384f" stroke="#15384f"></path><path d="M97 0L0 0L102 78Z" fill="#19435d" stroke="#19435d"></path><path d="M0 401L0 493L128 423Z" fill="#1d4e6b" stroke="#1d4e6b"></path><path d="M900 317L782 274L785 371Z" fill="#15384f" stroke="#15384f"></path><path d="M900 317L900 169L782 274Z" fill="#00101c" stroke="#00101c"></path><path d="M778 600L824 507L726 523Z" fill="#112e42" stroke="#112e42"></path><path d="M726 523L824 507L718 402Z" fill="#112e42" stroke="#112e42"></path><path d="M900 407L900 317L785 371Z" fill="#297ea6" stroke="#297ea6"></path><path d="M900 169L900 80L783 74Z" fill="#112e42" stroke="#112e42"></path><path d="M824 507L900 407L785 371Z" fill="#0c2435" stroke="#0c2435"></path><path d="M675 600L778 600L726 523Z" fill="#00101c" stroke="#00101c"></path><path d="M824 507L900 488L900 407Z" fill="#19435d" stroke="#19435d"></path><path d="M900 80L900 0L822 0Z" fill="#112e42" stroke="#112e42"></path><path d="M0 493L0 600L111 516Z" fill="#19435d" stroke="#19435d"></path><path d="M900 600L900 488L824 507Z" fill="#246688" stroke="#246688"></path><path d="M778 600L900 600L824 507Z" fill="#15384f" stroke="#15384f"></path></g></svg>