<svg id="visual" viewBox="0 0 900 600" width="900" height="600" xmlns="http://www.w3.org/2000/svg" xmlns:xlink="http://www.w3.org/1999/xlink" version="1.1"><path d="M0 398L64 398L64 506L129 506L129 407L193 407L193 464L257 464L257 454L321 454L321 444L386 444L386 459L450 459L450 502L514 502L514 536L579 536L579 436L643 436L643 417L707 417L707 459L771 459L771 479L836 479L836 426L900 426L900 428L900 601L900 601L836 601L836 601L771 601L771 601L707 601L707 601L643 601L643 601L579 601L579 601L514 601L514 601L450 601L450 601L386 601L386 601L321 601L321 601L257 601L257 601L193 601L193 601L129 601L129 601L64 601L64 601L0 601Z" fill="#fffffe" stroke-linecap="square" stroke-linejoin="miter"></path></svg>